<svg width="70" height="70" viewBox="0 0 70 70" fill="none" xmlns="http://www.w3.org/2000/svg">
<path d="M41.5625 45.9375H28.4375C26.697 45.9375 25.0278 46.6289 23.7971 47.8596C22.5664 49.0903 21.875 50.7595 21.875 52.5V56.875H26.25V52.5C26.25 51.9198 26.4805 51.3634 26.8907 50.9532C27.3009 50.543 27.8573 50.3125 28.4375 50.3125H41.5625C42.1427 50.3125 42.6991 50.543 43.1093 50.9532C43.5195 51.3634 43.75 51.9198 43.75 52.5V56.875H48.125V52.5C48.125 50.7595 47.4336 49.0903 46.2029 47.8596C44.9722 46.6289 43.303 45.9375 41.5625 45.9375ZM35 43.75C36.7306 43.75 38.4223 43.2368 39.8612 42.2754C41.3002 41.3139 42.4217 39.9473 43.0839 38.3485C43.7462 36.7496 43.9195 34.9903 43.5819 33.293C43.2443 31.5956 42.4109 30.0365 41.1872 28.8128C39.9635 27.5891 38.4044 26.7558 36.707 26.4181C35.0097 26.0805 33.2504 26.2538 31.6515 26.9161C30.0527 27.5783 28.6861 28.6998 27.7246 30.1388C26.7632 31.5777 26.25 33.2694 26.25 35C26.25 37.3206 27.1719 39.5462 28.8128 41.1872C30.4538 42.8281 32.6794 43.75 35 43.75ZM35 30.625C35.8653 30.625 36.7112 30.8816 37.4306 31.3623C38.1501 31.8431 38.7108 32.5263 39.042 33.3258C39.3731 34.1252 39.4597 35.0049 39.2909 35.8535C39.1221 36.7022 38.7054 37.4817 38.0936 38.0936C37.4817 38.7055 36.7022 39.1221 35.8535 39.2909C35.0049 39.4598 34.1252 39.3731 33.3258 39.042C32.5263 38.7108 31.8431 38.1501 31.3623 37.4306C30.8816 36.7112 30.625 35.8653 30.625 35C30.625 33.8397 31.0859 32.7269 31.9064 31.9064C32.7269 31.0859 33.8397 30.625 35 30.625Z" fill="white"/>
<path d="M54.6875 10.9375H48.125V8.75C48.125 7.58968 47.6641 6.47688 46.8436 5.65641C46.0231 4.83594 44.9103 4.375 43.75 4.375H26.25C25.0897 4.375 23.9769 4.83594 23.1564 5.65641C22.3359 6.47688 21.875 7.58968 21.875 8.75V10.9375H15.3125C14.1522 10.9375 13.0394 11.3984 12.2189 12.2189C11.3984 13.0394 10.9375 14.1522 10.9375 15.3125V61.25C10.9375 62.4103 11.3984 63.5231 12.2189 64.3436C13.0394 65.1641 14.1522 65.625 15.3125 65.625H54.6875C55.8478 65.625 56.9606 65.1641 57.7811 64.3436C58.6016 63.5231 59.0625 62.4103 59.0625 61.25V15.3125C59.0625 14.1522 58.6016 13.0394 57.7811 12.2189C56.9606 11.3984 55.8478 10.9375 54.6875 10.9375ZM26.25 8.75H43.75V17.5H26.25V8.75ZM54.6875 61.25H15.3125V15.3125H21.875V21.875H48.125V15.3125H54.6875V61.25Z" fill="white"/>
</svg>
