<svg width="70" height="70" viewBox="0 0 70 70" fill="none" xmlns="http://www.w3.org/2000/svg">
<path d="M21.875 13.125H48.125V17.5H21.875V13.125ZM21.875 21.875H48.125V26.25H21.875V21.875ZM21.875 52.5H35V56.875H21.875V52.5ZM21.875 30.625H35V35H21.875V30.625Z" fill="white"/>
<path d="M52.5 65.625H17.5C16.34 65.6238 15.2279 65.1625 14.4077 64.3423C13.5875 63.5221 13.1262 62.41 13.125 61.25V8.75C13.1262 7.59003 13.5875 6.47791 14.4077 5.65769C15.2279 4.83747 16.34 4.37616 17.5 4.375H52.5C53.66 4.37616 54.7721 4.83747 55.5923 5.65769C56.4125 6.47791 56.8738 7.59003 56.875 8.75V61.25C56.8738 62.41 56.4125 63.5221 55.5923 64.3423C54.7721 65.1625 53.66 65.6238 52.5 65.625ZM17.5 8.75V61.25H52.5V8.75H17.5Z" fill="white"/>
</svg>
