<svg width="30" height="30" viewBox="0 0 30 30" fill="none" xmlns="http://www.w3.org/2000/svg">
<path d="M22.1166 15C22.1131 13.8795 21.993 12.7623 21.7582 11.6667H24.7582C24.6037 11.2096 24.4171 10.7641 24.1999 10.3333H21.4082C20.8834 8.58004 20.0694 6.92673 18.9999 5.44166C18.3165 5.15432 17.604 4.94197 16.8749 4.80832C18.3402 6.38269 19.4462 8.25639 20.1166 10.3H15.6249V4.66666H14.3749V10.3083H9.88322C10.5549 8.26103 11.6639 6.38432 13.1332 4.80832C12.4072 4.93974 11.6975 5.14929 11.0166 5.43332C9.94277 6.91217 9.12319 8.55978 8.59155 10.3083H5.78322C5.56203 10.7469 5.37265 11.2009 5.21655 11.6667H8.24155C8.00679 12.7623 7.8867 13.8795 7.88322 15C7.88552 16.2256 8.02529 17.4472 8.29989 18.6417H5.34989C5.52229 19.1088 5.72838 19.5627 5.96655 20H8.65822C9.16839 21.5965 9.92473 23.1035 10.8999 24.4667C11.5982 24.7662 12.3277 24.987 13.0749 25.125C11.7148 23.6415 10.6689 21.8982 9.99989 20H14.3832V25.2833H15.6332V20H19.9999C19.3286 21.899 18.2798 23.6423 16.9166 25.125C17.6672 24.9822 18.3996 24.7558 19.0999 24.45C20.0735 23.092 20.8298 21.5907 21.3416 20H24.0082C24.2453 19.5708 24.4514 19.1252 24.6249 18.6667H21.6666C21.9542 17.4653 22.1052 16.2353 22.1166 15ZM14.3749 18.6417H9.59155C9.00486 16.3482 8.97914 13.9472 9.51655 11.6417H14.3749V18.6417ZM20.4082 18.6417H15.6249V11.6667H20.4832C20.7226 12.7614 20.84 13.8794 20.8332 15C20.84 16.2266 20.6973 17.4495 20.4082 18.6417Z" fill="#333333"/>
<path d="M15.0001 1.66666C12.363 1.66666 9.78514 2.44864 7.59248 3.91373C5.39983 5.37881 3.69086 7.4612 2.68169 9.89754C1.67253 12.3339 1.40848 15.0148 1.92295 17.6012C2.43742 20.1876 3.7073 22.5634 5.572 24.4281C7.4367 26.2928 9.81247 27.5627 12.3989 28.0771C14.9853 28.5916 17.6662 28.3276 20.1025 27.3184C22.5389 26.3092 24.6213 24.6002 26.0863 22.4076C27.5514 20.2149 28.3334 17.6371 28.3334 15C28.3334 11.4638 26.9287 8.07238 24.4282 5.5719C21.9277 3.07141 18.5363 1.66666 15.0001 1.66666ZM15.0001 26.6667C12.6926 26.6667 10.437 25.9824 8.51843 24.7005C6.59986 23.4185 5.10452 21.5964 4.22149 19.4646C3.33847 17.3328 3.10743 14.987 3.55759 12.7239C4.00775 10.4608 5.1189 8.38202 6.75051 6.75041C8.38212 5.1188 10.4609 4.00766 12.724 3.55749C14.9871 3.10733 17.3329 3.33837 19.4647 4.2214C21.5965 5.10442 23.4186 6.59976 24.7006 8.51834C25.9825 10.4369 26.6668 12.6925 26.6668 15C26.6668 18.0942 25.4376 21.0616 23.2497 23.2496C21.0617 25.4375 18.0943 26.6667 15.0001 26.6667Z" fill="#333333"/>
</svg>
