<svg id="Layer_1" data-name="Layer 1" xmlns="http://www.w3.org/2000/svg" viewBox="0 0 283.46 283.46"><defs><style>.cls-1{fill:#f9e000;}.cls-2{fill:#3c1e1e;}</style></defs><rect class="cls-1" width="283.46" height="283.46" rx="45.35"/><path class="cls-2" d="M283.46,193.22c-55.95,0-101.3,36.06-101.3,80.54,0,27.57,17.43,51.9,44,66.42l-7.33,39.26a2.26,2.26,0,0,0,3.46,2.29l43.51-28.66s11.64,1.22,17.66,1.22c56,0,101.3-36.05,101.3-80.53S339.41,193.22,283.46,193.22Z" transform="translate(-141.73 -141.73)"/><path class="cls-1" d="M242.44,251.31H213.25a5,5,0,0,0,0,10h9.49v35.25a4.94,4.94,0,0,0,1.42,3.45,4.82,4.82,0,0,0,3.42,1.42h1.06a4.81,4.81,0,0,0,3.41-1.42,4.93,4.93,0,0,0,1.43-3.45V261.32h9a5,5,0,0,0,0-10Z" transform="translate(-141.73 -141.73)"/><path class="cls-1" d="M310.76,292H297.19V256a5.39,5.39,0,1,0-10.78,0v40.54a4.52,4.52,0,0,0,4.51,4.54h19.84a4.55,4.55,0,0,0,0-9.09Z" transform="translate(-141.73 -141.73)"/><path class="cls-1" d="M354.33,293.69l-15.13-20,13.67-13.78a4.81,4.81,0,0,0,0-6.75,4.71,4.71,0,0,0-6.71,0l-16.93,17.05V256a5.39,5.39,0,1,0-10.78,0v40a5.39,5.39,0,1,0,10.78,0V283.69l3.08-3.1,14.31,18.93a4.78,4.78,0,0,0,6.74,1A4.87,4.87,0,0,0,354.33,293.69Z" transform="translate(-141.73 -141.73)"/><path class="cls-1" d="M283.19,295l-14.55-40.11-.05,0a7.15,7.15,0,0,0-6.82-4.22,8.36,8.36,0,0,0-2.33.33,7.53,7.53,0,0,0-2,.92,6.93,6.93,0,0,0-1.57,1.39,6.38,6.38,0,0,0-.74,1.19c-.18.37-.89,2.42-1.13,3.05l-.25.67-.29.8-.34.92-.38,1-.42,1.14-.46,1.22-.48,1.31-.51,1.37-.53,1.44-.55,1.49-.57,1.53-.58,1.57-.59,1.59-.59,1.6-.59,1.6-.59,1.6-.59,1.58-.57,1.55-.56,1.52-.55,1.47-.52,1.41-.5,1.35-.47,1.27-.44,1.19-.4,1.09-.37,1-.32.88-.28.75-.23.61-.17.47-.12.32-.06.16a4.87,4.87,0,0,0,2.95,6.2,4.82,4.82,0,0,0,6.16-3l2.47-7.11h19.92l2.47,7.11a4.82,4.82,0,0,0,6.16,3A4.87,4.87,0,0,0,283.19,295Zm-28.34-13,6.69-19.24.22,0L268.45,282Z" transform="translate(-141.73 -141.73)"/></svg>